<svg width="100" height="60" viewBox="0 0 100 60" fill="none" xmlns="http://www.w3.org/2000/svg">
<path fill-rule="evenodd" clip-rule="evenodd" d="M100 30C100 29.1161 99.6237 28.2683 98.954 27.6433C98.2843 27.0183 97.3759 26.6671 96.4288 26.6671H12.1985L34.6756 5.69675C35.3462 5.07092 35.7229 4.22212 35.7229 3.33708C35.7229 2.45203 35.3462 1.60323 34.6756 0.977406C34.005 0.351583 33.0955 2.08524e-08 32.1472 0C31.1989 -2.08524e-08 30.2894 0.351583 29.6188 0.977406L1.04917 27.6403C0.716594 27.9499 0.452742 28.3177 0.272708 28.7226C0.0926733 29.1275 1.90735e-06 29.5616 1.90735e-06 30C1.90735e-06 30.4384 0.0926733 30.8725 0.272708 31.2774C0.452742 31.6823 0.716594 32.0501 1.04917 32.3597L29.6188 59.0226C30.2894 59.6484 31.1989 60 32.1472 60C33.0955 60 34.005 59.6484 34.6756 59.0226C35.3462 58.3968 35.7229 57.548 35.7229 56.6629C35.7229 55.7779 35.3462 54.9291 34.6756 54.3033L12.1985 33.3329H96.4288C97.3759 33.3329 98.2843 32.9817 98.954 32.3567C99.6237 31.7317 100 30.8839 100 30Z" fill="#EFDF64"/>
</svg>
