<svg width="30" height="28" viewBox="0 0 30 28" fill="none" xmlns="http://www.w3.org/2000/svg">
<path fill-rule="evenodd" clip-rule="evenodd" d="M30 14C30 13.5875 29.8871 13.1919 29.6862 12.9002C29.4853 12.6085 29.2128 12.4447 28.9286 12.4447H3.65954L10.4027 2.65848C10.6039 2.36643 10.7169 1.97032 10.7169 1.5573C10.7169 1.14428 10.6039 0.748174 10.4027 0.456123C10.2015 0.164072 9.92866 9.73114e-09 9.64416 0C9.35966 -9.73114e-09 9.08681 0.164072 8.88563 0.456123L0.314749 12.8988C0.214977 13.0433 0.135822 13.2149 0.0818119 13.4039C0.0278015 13.5928 0 13.7954 0 14C0 14.2046 0.0278015 14.4072 0.0818119 14.5961C0.135822 14.7851 0.214977 14.9567 0.314749 15.1012L8.88563 27.5439C9.08681 27.8359 9.35966 28 9.64416 28C9.92866 28 10.2015 27.8359 10.4027 27.5439C10.6039 27.2518 10.7169 26.8557 10.7169 26.4427C10.7169 26.0297 10.6039 25.6336 10.4027 25.3415L3.65954 15.5553H28.9286C29.2128 15.5553 29.4853 15.3915 29.6862 15.0998C29.8871 14.8081 30 14.4125 30 14Z" fill="#D7B713"/>
</svg>
