<svg width="22" height="20" viewBox="0 0 22 20" fill="none" xmlns="http://www.w3.org/2000/svg">
<path fill-rule="evenodd" clip-rule="evenodd" d="M22 10C22 9.70536 21.9172 9.42278 21.7699 9.21444C21.6225 9.00609 21.4227 8.88905 21.2143 8.88905H2.68366L7.62863 1.89892C7.77616 1.69031 7.85904 1.40737 7.85904 1.11236C7.85904 0.817343 7.77616 0.53441 7.62863 0.325802C7.4811 0.117194 7.28102 6.95081e-09 7.07238 0C6.86375 -6.95081e-09 6.66366 0.117194 6.51613 0.325802L0.230816 9.21344C0.157649 9.31664 0.0996022 9.43924 0.0599946 9.57421C0.020387 9.70918 -7.15256e-07 9.85387 -7.15256e-07 10C-7.15256e-07 10.1461 0.020387 10.2908 0.0599946 10.4258C0.0996022 10.5608 0.157649 10.6834 0.230816 10.7866L6.51613 19.6742C6.66366 19.8828 6.86375 20 7.07238 20C7.28102 20 7.4811 19.8828 7.62863 19.6742C7.77616 19.4656 7.85904 19.1827 7.85904 18.8876C7.85904 18.5926 7.77616 18.3097 7.62863 18.1011L2.68366 11.111H21.2143C21.4227 11.111 21.6225 10.9939 21.7699 10.7856C21.9172 10.5772 22 10.2946 22 10Z" fill="#D7B713"/>
</svg>
