<svg width="143" height="71" viewBox="0 0 143 71" fill="none" xmlns="http://www.w3.org/2000/svg">
<path d="M13.68 50.96H4.512V56.072H11.664V57.872H4.512V65H2.592V49.16H13.68V50.96ZM17.2404 65V49.16H28.3524V50.96H19.1604V56.072H26.3124V57.872H19.1604V63.2H28.7124V65H17.2404ZM38.5451 49.16C40.1611 49.16 41.4571 49.576 42.4331 50.408C43.4091 51.24 43.8971 52.368 43.8971 53.792C43.8971 55.216 43.4011 56.328 42.4091 57.128C41.4331 57.912 40.1371 58.304 38.5211 58.304L38.3531 58.424H34.4651V65H32.5451V49.16H38.5451ZM38.5211 56.624C39.6571 56.624 40.4971 56.392 41.0411 55.928C41.6011 55.448 41.8811 54.736 41.8811 53.792C41.8811 52.848 41.6011 52.144 41.0411 51.68C40.4971 51.2 39.6571 50.96 38.5211 50.96H34.4651V56.624H38.5211ZM39.6251 57.008L44.8571 65H42.5771L38.0171 58.064L39.6251 57.008ZM54.5061 49.16C56.1221 49.16 57.4181 49.576 58.3941 50.408C59.3701 51.24 59.8581 52.368 59.8581 53.792C59.8581 55.216 59.3621 56.328 58.3701 57.128C57.3941 57.912 56.0981 58.304 54.4821 58.304L54.3141 58.424H50.4261V65H48.5061V49.16H54.5061ZM54.4821 56.624C55.6181 56.624 56.4581 56.392 57.0021 55.928C57.5621 55.448 57.8421 54.736 57.8421 53.792C57.8421 52.848 57.5621 52.144 57.0021 51.68C56.4581 51.2 55.6181 50.96 54.4821 50.96H50.4261V56.624H54.4821ZM55.5861 57.008L60.8181 65H58.5381L53.9781 58.064L55.5861 57.008ZM77.091 65H75.051L73.371 60.608H66.195L64.515 65H62.499L68.667 49.16H70.947L77.091 65ZM66.891 58.808H72.675L69.771 51.008L66.891 58.808ZM86.1557 65.24C84.6517 65.24 83.3477 64.912 82.2437 64.256C81.1557 63.584 80.3077 62.64 79.6997 61.424C79.1077 60.208 78.8117 58.76 78.8117 57.08C78.8117 55.4 79.1237 53.952 79.7477 52.736C80.3877 51.52 81.2757 50.584 82.4117 49.928C83.5477 49.256 84.8517 48.92 86.3237 48.92C87.8917 48.92 89.1637 49.216 90.1397 49.808C91.1317 50.4 91.9317 51.312 92.5397 52.544L90.7877 53.504C90.4357 52.592 89.8757 51.904 89.1077 51.44C88.3557 50.96 87.4277 50.72 86.3237 50.72C85.2517 50.72 84.2997 50.976 83.4677 51.488C82.6517 51.984 82.0037 52.712 81.5237 53.672C81.0597 54.616 80.8277 55.752 80.8277 57.08C80.8277 58.408 81.0277 59.552 81.4277 60.512C81.8437 61.456 82.4517 62.184 83.2517 62.696C84.0677 63.192 85.0597 63.44 86.2277 63.44C86.8837 63.44 87.4917 63.36 88.0517 63.2C88.6277 63.024 89.1237 62.768 89.5397 62.432C89.9717 62.096 90.3077 61.672 90.5477 61.16C90.7877 60.648 90.9077 60.048 90.9077 59.36V58.808H85.8677V57.008H92.6597V65H91.1477L91.0517 62.048L91.4597 62.12C91.0437 63.112 90.3877 63.88 89.4917 64.424C88.5957 64.968 87.4837 65.24 86.1557 65.24ZM97.1389 65V49.16H108.251V50.96H99.0589V56.072H106.211V57.872H99.0589V63.2H108.611V65H97.1389ZM124.876 49.16V65H122.5L115.876 54.392L114.196 51.416H114.172L114.268 53.816V65H112.444V49.16H114.82L121.42 59.72L123.124 62.768H123.148L123.052 60.344V49.16H124.876ZM135.157 48.92C136.549 48.92 137.749 49.208 138.757 49.784C139.765 50.344 140.605 51.176 141.277 52.28L139.669 53.528C139.077 52.504 138.405 51.784 137.653 51.368C136.917 50.936 136.021 50.72 134.965 50.72C134.117 50.72 133.413 50.84 132.853 51.08C132.309 51.32 131.909 51.64 131.653 52.04C131.397 52.424 131.269 52.864 131.269 53.36C131.269 53.92 131.445 54.416 131.797 54.848C132.149 55.264 132.853 55.592 133.909 55.832L137.341 56.6C138.861 56.936 139.917 57.448 140.509 58.136C141.117 58.808 141.421 59.648 141.421 60.656C141.421 61.552 141.165 62.352 140.653 63.056C140.157 63.744 139.453 64.28 138.541 64.664C137.629 65.048 136.557 65.24 135.325 65.24C134.173 65.24 133.157 65.088 132.277 64.784C131.413 64.464 130.669 64.04 130.045 63.512C129.421 62.984 128.909 62.392 128.509 61.736L130.189 60.368C130.493 60.976 130.885 61.512 131.365 61.976C131.845 62.44 132.421 62.8 133.093 63.056C133.781 63.312 134.565 63.44 135.445 63.44C136.261 63.44 136.965 63.344 137.557 63.152C138.165 62.944 138.629 62.648 138.949 62.264C139.269 61.864 139.429 61.384 139.429 60.824C139.429 60.312 139.261 59.856 138.925 59.456C138.589 59.04 137.957 58.728 137.029 58.52L133.309 57.68C132.333 57.456 131.541 57.152 130.933 56.768C130.341 56.368 129.909 55.904 129.637 55.376C129.381 54.832 129.253 54.248 129.253 53.624C129.253 52.776 129.485 52 129.949 51.296C130.429 50.576 131.109 50 131.989 49.568C132.885 49.136 133.941 48.92 135.157 48.92Z" fill="white"/>
<rect y="43" width="142" height="1" rx="0.5" fill="#FFDD00"/>
<path d="M108.24 33.6H108.44V34H102.8V33.6H103C103.187 33.6 103.36 33.52 103.52 33.36C103.68 33.2 103.813 33.0133 103.92 32.8C104.053 32.5867 104.147 32.36 104.2 32.12C104.253 31.8533 104.28 31.6133 104.28 31.4V10.08C104.28 9.89333 104.253 9.68 104.2 9.44C104.147 9.2 104.053 8.97333 103.92 8.76C103.813 8.54666 103.68 8.37333 103.52 8.24C103.36 8.08 103.187 8 103 8H102.8V7.6H109.76C112.427 7.6 114.48 8.12 115.92 9.16C117.387 10.2 118.12 11.7333 118.12 13.76C118.12 14.7733 117.947 15.6667 117.6 16.44C117.28 17.1867 116.84 17.84 116.28 18.4C115.72 18.9333 115.053 19.3733 114.28 19.72C113.533 20.04 112.733 20.28 111.88 20.44L114.76 24.84C115.453 25.9067 116.16 26.96 116.88 28C117.6 29.0133 118.307 30.0667 119 31.16C119.187 31.4267 119.387 31.7067 119.6 32C119.84 32.2933 120.08 32.56 120.32 32.8C120.587 33.04 120.853 33.24 121.12 33.4C121.413 33.5333 121.707 33.6 122 33.6V34H120.28C119.213 34 118.333 33.7467 117.64 33.24C116.973 32.7067 116.413 32.0933 115.96 31.4C114.76 29.64 113.56 27.8533 112.36 26.04C111.187 24.2267 110.013 22.44 108.84 20.68C108.547 20.6533 108.227 20.6267 107.88 20.6C107.56 20.5467 107.253 20.4933 106.96 20.44V31.4C106.96 31.6133 106.987 31.8533 107.04 32.12C107.093 32.36 107.173 32.5867 107.28 32.8C107.413 33.0133 107.547 33.2 107.68 33.36C107.84 33.52 108.027 33.6 108.24 33.6ZM106.96 8.96V19.12H107.16C107.373 19.1467 107.707 19.1733 108.16 19.2C108.64 19.2 109.227 19.2 109.92 19.2C110.48 19.2 111.067 19.12 111.68 18.96C112.32 18.7733 112.907 18.48 113.44 18.08C114 17.6533 114.453 17.1067 114.8 16.44C115.173 15.7733 115.36 14.9333 115.36 13.92C115.36 12.9067 115.16 12.08 114.76 11.44C114.387 10.8 113.853 10.2933 113.16 9.92C112.493 9.54666 111.68 9.29333 110.72 9.16C109.76 9.02666 108.707 8.96 107.56 8.96H106.96ZM124.402 33.6H124.602C124.788 33.6 124.962 33.52 125.122 33.36C125.282 33.2 125.415 33.0133 125.522 32.8C125.655 32.5867 125.748 32.36 125.802 32.12C125.855 31.8533 125.882 31.6133 125.882 31.4V10.12C125.882 9.93333 125.855 9.72 125.802 9.48C125.748 9.24 125.655 9.01333 125.522 8.8C125.415 8.56 125.268 8.37333 125.082 8.24C124.922 8.08 124.735 8 124.522 8H124.322V7.6H130.882C133.362 7.6 135.295 8.14667 136.682 9.24C138.095 10.3333 138.802 11.7867 138.802 13.6C138.802 14.3733 138.668 15.0667 138.402 15.68C138.135 16.2933 137.788 16.84 137.362 17.32C136.962 17.8 136.522 18.2133 136.042 18.56C135.562 18.88 135.108 19.1467 134.682 19.36C135.802 19.5733 136.735 19.9333 137.482 20.44C138.228 20.9467 138.828 21.5333 139.282 22.2C139.762 22.84 140.095 23.5333 140.282 24.28C140.468 25.0267 140.562 25.76 140.562 26.48C140.562 27.8667 140.308 29.04 139.802 30C139.295 30.9333 138.615 31.7067 137.762 32.32C136.935 32.9067 135.975 33.3333 134.882 33.6C133.815 33.8667 132.708 34 131.562 34H124.402V33.6ZM137.842 26.72C137.628 24.6667 136.935 23.08 135.762 21.96C134.588 20.84 132.935 20.28 130.802 20.28H128.562V32.68H130.882C133.042 32.68 134.735 32.2 135.962 31.24C137.215 30.2533 137.842 28.8933 137.842 27.16V26.72ZM136.202 13.96C136.122 12.4133 135.575 11.1867 134.562 10.28C133.575 9.37333 132.242 8.92 130.562 8.92H128.562V19H130.642C131.762 19 132.668 18.8533 133.362 18.56C134.082 18.2667 134.655 17.8933 135.082 17.44C135.508 16.96 135.802 16.44 135.962 15.88C136.122 15.32 136.202 14.7733 136.202 14.24V13.96Z" fill="#FFDD00"/>
</svg>
