<svg width="48" height="29" viewBox="0 0 48 29" fill="none" xmlns="http://www.w3.org/2000/svg">
<path d="M4.56 22.32H1.504V24.024H3.888V24.624H1.504V27H0.864V21.72H4.56V22.32ZM5.74681 27V21.72H9.45081V22.32H6.38681V24.024H8.77081V24.624H6.38681V26.4H9.57081V27H5.74681ZM12.8484 21.72C13.387 21.72 13.819 21.8587 14.1444 22.136C14.4697 22.4133 14.6324 22.7893 14.6324 23.264C14.6324 23.7387 14.467 24.1093 14.1364 24.376C13.811 24.6373 13.379 24.768 12.8404 24.768L12.7844 24.808H11.4884V27H10.8484V21.72H12.8484ZM12.8404 24.208C13.219 24.208 13.499 24.1307 13.6804 23.976C13.867 23.816 13.9604 23.5787 13.9604 23.264C13.9604 22.9493 13.867 22.7147 13.6804 22.56C13.499 22.4 13.219 22.32 12.8404 22.32H11.4884V24.208H12.8404ZM13.2084 24.336L14.9524 27H14.1924L12.6724 24.688L13.2084 24.336ZM18.1687 21.72C18.7074 21.72 19.1394 21.8587 19.4647 22.136C19.79 22.4133 19.9527 22.7893 19.9527 23.264C19.9527 23.7387 19.7874 24.1093 19.4567 24.376C19.1314 24.6373 18.6994 24.768 18.1607 24.768L18.1047 24.808H16.8087V27H16.1687V21.72H18.1687ZM18.1607 24.208C18.5394 24.208 18.8194 24.1307 19.0007 23.976C19.1874 23.816 19.2807 23.5787 19.2807 23.264C19.2807 22.9493 19.1874 22.7147 19.0007 22.56C18.8194 22.4 18.5394 22.32 18.1607 22.32H16.8087V24.208H18.1607ZM18.5287 24.336L20.2727 27H19.5127L17.9927 24.688L18.5287 24.336ZM25.697 27H25.017L24.457 25.536H22.065L21.505 27H20.833L22.889 21.72H23.649L25.697 27ZM22.297 24.936H24.225L23.257 22.336L22.297 24.936ZM28.7186 27.08C28.2172 27.08 27.7826 26.9707 27.4146 26.752C27.0519 26.528 26.7692 26.2133 26.5666 25.808C26.3692 25.4027 26.2706 24.92 26.2706 24.36C26.2706 23.8 26.3746 23.3173 26.5826 22.912C26.7959 22.5067 27.0919 22.1947 27.4706 21.976C27.8492 21.752 28.2839 21.64 28.7746 21.64C29.2972 21.64 29.7212 21.7387 30.0466 21.936C30.3772 22.1333 30.6439 22.4373 30.8466 22.848L30.2626 23.168C30.1452 22.864 29.9586 22.6347 29.7026 22.48C29.4519 22.32 29.1426 22.24 28.7746 22.24C28.4172 22.24 28.0999 22.3253 27.8226 22.496C27.5506 22.6613 27.3346 22.904 27.1746 23.224C27.0199 23.5387 26.9426 23.9173 26.9426 24.36C26.9426 24.8027 27.0092 25.184 27.1426 25.504C27.2812 25.8187 27.4839 26.0613 27.7506 26.232C28.0226 26.3973 28.3532 26.48 28.7426 26.48C28.9612 26.48 29.1639 26.4533 29.3506 26.4C29.5426 26.3413 29.7079 26.256 29.8466 26.144C29.9906 26.032 30.1026 25.8907 30.1826 25.72C30.2626 25.5493 30.3026 25.3493 30.3026 25.12V24.936H28.6226V24.336H30.8866V27H30.3826L30.3506 26.016L30.4866 26.04C30.3479 26.3707 30.1292 26.6267 29.8306 26.808C29.5319 26.9893 29.1612 27.08 28.7186 27.08ZM32.3796 27V21.72H36.0836V22.32H33.0196V24.024H35.4036V24.624H33.0196V26.4H36.2036V27H32.3796ZM41.6252 21.72V27H40.8332L38.6252 23.464L38.0652 22.472H38.0572L38.0892 23.272V27H37.4812V21.72H38.2732L40.4732 25.24L41.0412 26.256H41.0492L41.0172 25.448V21.72H41.6252ZM45.0522 21.64C45.5162 21.64 45.9162 21.736 46.2522 21.928C46.5882 22.1147 46.8682 22.392 47.0922 22.76L46.5562 23.176C46.3589 22.8347 46.1349 22.5947 45.8842 22.456C45.6389 22.312 45.3402 22.24 44.9882 22.24C44.7055 22.24 44.4709 22.28 44.2842 22.36C44.1029 22.44 43.9695 22.5467 43.8842 22.68C43.7989 22.808 43.7562 22.9547 43.7562 23.12C43.7562 23.3067 43.8149 23.472 43.9322 23.616C44.0495 23.7547 44.2842 23.864 44.6362 23.944L45.7802 24.2C46.2869 24.312 46.6389 24.4827 46.8362 24.712C47.0389 24.936 47.1402 25.216 47.1402 25.552C47.1402 25.8507 47.0549 26.1173 46.8842 26.352C46.7189 26.5813 46.4842 26.76 46.1802 26.888C45.8762 27.016 45.5189 27.08 45.1082 27.08C44.7242 27.08 44.3855 27.0293 44.0922 26.928C43.8042 26.8213 43.5562 26.68 43.3482 26.504C43.1402 26.328 42.9695 26.1307 42.8362 25.912L43.3962 25.456C43.4975 25.6587 43.6282 25.8373 43.7882 25.992C43.9482 26.1467 44.1402 26.2667 44.3642 26.352C44.5935 26.4373 44.8549 26.48 45.1482 26.48C45.4202 26.48 45.6549 26.448 45.8522 26.384C46.0549 26.3147 46.2095 26.216 46.3162 26.088C46.4229 25.9547 46.4762 25.7947 46.4762 25.608C46.4762 25.4373 46.4202 25.2853 46.3082 25.152C46.1962 25.0133 45.9855 24.9093 45.6762 24.84L44.4362 24.56C44.1109 24.4853 43.8469 24.384 43.6442 24.256C43.4469 24.1227 43.3029 23.968 43.2122 23.792C43.1269 23.6107 43.0842 23.416 43.0842 23.208C43.0842 22.9253 43.1615 22.6667 43.3162 22.432C43.4762 22.192 43.7029 22 43.9962 21.856C44.2949 21.712 44.6469 21.64 45.0522 21.64Z" fill="white"/>
<rect y="18" width="48" height="1" rx="0.5" fill="#FFDD00"/>
<path d="M2.896 13.84H2.976V14H0.72V13.84H0.8C0.874667 13.84 0.944 13.808 1.008 13.744C1.072 13.68 1.12533 13.6053 1.168 13.52C1.22133 13.4347 1.25867 13.344 1.28 13.248C1.30133 13.1413 1.312 13.0453 1.312 12.96V4.432C1.312 4.35733 1.30133 4.272 1.28 4.176C1.25867 4.08 1.22133 3.98933 1.168 3.904C1.12533 3.81867 1.072 3.74933 1.008 3.696C0.944 3.632 0.874667 3.6 0.8 3.6H0.72V3.44H3.504C4.57067 3.44 5.392 3.648 5.968 4.064C6.55467 4.48 6.848 5.09333 6.848 5.904C6.848 6.30933 6.77867 6.66667 6.64 6.976C6.512 7.27467 6.336 7.536 6.112 7.76C5.888 7.97333 5.62133 8.14933 5.312 8.288C5.01333 8.416 4.69333 8.512 4.352 8.576L5.504 10.336C5.78133 10.7627 6.064 11.184 6.352 11.6C6.64 12.0053 6.92267 12.4267 7.2 12.864C7.27467 12.9707 7.35467 13.0827 7.44 13.2C7.536 13.3173 7.632 13.424 7.728 13.52C7.83467 13.616 7.94133 13.696 8.048 13.76C8.16533 13.8133 8.28267 13.84 8.4 13.84V14H7.712C7.28533 14 6.93333 13.8987 6.656 13.696C6.38933 13.4827 6.16533 13.2373 5.984 12.96C5.504 12.256 5.024 11.5413 4.544 10.816C4.07467 10.0907 3.60533 9.376 3.136 8.672C3.01867 8.66133 2.89067 8.65067 2.752 8.64C2.624 8.61867 2.50133 8.59733 2.384 8.576V12.96C2.384 13.0453 2.39467 13.1413 2.416 13.248C2.43733 13.344 2.46933 13.4347 2.512 13.52C2.56533 13.6053 2.61867 13.68 2.672 13.744C2.736 13.808 2.81067 13.84 2.896 13.84ZM2.384 3.984V8.048H2.464C2.54933 8.05867 2.68267 8.06933 2.864 8.08C3.056 8.08 3.29067 8.08 3.568 8.08C3.792 8.08 4.02667 8.048 4.272 7.984C4.528 7.90933 4.76267 7.792 4.976 7.632C5.2 7.46133 5.38133 7.24267 5.52 6.976C5.66933 6.70933 5.744 6.37333 5.744 5.968C5.744 5.56267 5.664 5.232 5.504 4.976C5.35467 4.72 5.14133 4.51733 4.864 4.368C4.59733 4.21867 4.272 4.11733 3.888 4.064C3.504 4.01067 3.08267 3.984 2.624 3.984H2.384ZM9.36063 13.84H9.44063C9.51529 13.84 9.58463 13.808 9.64863 13.744C9.71263 13.68 9.76596 13.6053 9.80863 13.52C9.86196 13.4347 9.89929 13.344 9.92063 13.248C9.94196 13.1413 9.95263 13.0453 9.95263 12.96V4.448C9.95263 4.37333 9.94196 4.288 9.92063 4.192C9.89929 4.096 9.86196 4.00533 9.80863 3.92C9.76596 3.824 9.70729 3.74933 9.63263 3.696C9.56863 3.632 9.49396 3.6 9.40863 3.6H9.32863V3.44H11.9526C12.9446 3.44 13.718 3.65867 14.2726 4.096C14.838 4.53333 15.1206 5.11467 15.1206 5.84C15.1206 6.14933 15.0673 6.42667 14.9606 6.672C14.854 6.91733 14.7153 7.136 14.5446 7.328C14.3846 7.52 14.2086 7.68533 14.0166 7.824C13.8246 7.952 13.6433 8.05867 13.4726 8.144C13.9206 8.22933 14.294 8.37333 14.5926 8.576C14.8913 8.77867 15.1313 9.01333 15.3126 9.28C15.5046 9.536 15.638 9.81333 15.7126 10.112C15.7873 10.4107 15.8246 10.704 15.8246 10.992C15.8246 11.5467 15.7233 12.016 15.5206 12.4C15.318 12.7733 15.046 13.0827 14.7046 13.328C14.374 13.5627 13.99 13.7333 13.5526 13.84C13.126 13.9467 12.6833 14 12.2246 14H9.36063V13.84ZM14.7366 11.088C14.6513 10.2667 14.374 9.632 13.9046 9.184C13.4353 8.736 12.774 8.512 11.9206 8.512H11.0246V13.472H11.9526C12.8166 13.472 13.494 13.28 13.9846 12.896C14.486 12.5013 14.7366 11.9573 14.7366 11.264V11.088ZM14.0806 5.984C14.0486 5.36533 13.83 4.87467 13.4246 4.512C13.03 4.14933 12.4966 3.968 11.8246 3.968H11.0246V8H11.8566C12.3046 8 12.6673 7.94133 12.9446 7.824C13.2326 7.70667 13.462 7.55733 13.6326 7.376C13.8033 7.184 13.9206 6.976 13.9846 6.752C14.0486 6.528 14.0806 6.30933 14.0806 6.096V5.984Z" fill="#FFDD00"/>
</svg>
