<svg width="25" height="18" viewBox="0 0 25 18" fill="none" xmlns="http://www.w3.org/2000/svg">
<path fill-rule="evenodd" clip-rule="evenodd" d="M0 8.70224C0 8.44583 0.0940626 8.19993 0.261495 8.01862C0.428928 7.83732 0.656015 7.73546 0.8928 7.73546H21.9504L16.3311 1.65248C16.1635 1.47095 16.0693 1.22473 16.0693 0.968001C16.0693 0.711271 16.1635 0.465056 16.3311 0.283521C16.4987 0.101985 16.7261 6.04876e-09 16.9632 0C17.2003 -6.04876e-09 17.4277 0.101985 17.5953 0.283521L24.7377 8.01776C24.8209 8.10756 24.8868 8.21425 24.9318 8.3317C24.9768 8.44916 25 8.57507 25 8.70224C25 8.8294 24.9768 8.95532 24.9318 9.07277C24.8868 9.19023 24.8209 9.29691 24.7377 9.38672L17.5953 17.121C17.4277 17.3025 17.2003 17.4045 16.9632 17.4045C16.7261 17.4045 16.4987 17.3025 16.3311 17.121C16.1635 16.9394 16.0693 16.6932 16.0693 16.4365C16.0693 16.1797 16.1635 15.9335 16.3311 15.752L21.9504 9.66902H0.8928C0.656015 9.66902 0.428928 9.56716 0.261495 9.38585C0.0940626 9.20455 0 8.95864 0 8.70224Z" fill="#FFDD00"/>
</svg>
