<svg width="25" height="18" viewBox="0 0 25 18" fill="none" xmlns="http://www.w3.org/2000/svg">
<path fill-rule="evenodd" clip-rule="evenodd" d="M0 9.03099C0 8.77458 0.0940626 8.52868 0.261495 8.34737C0.428928 8.16607 0.656015 8.06421 0.8928 8.06421H21.9504L16.3311 1.98123C16.1635 1.7997 16.0693 1.55348 16.0693 1.29675C16.0693 1.04002 16.1635 0.793807 16.3311 0.612271C16.4987 0.430736 16.7261 0.328751 16.9632 0.328751C17.2003 0.328751 17.4277 0.430736 17.5953 0.612271L24.7377 8.34651C24.8209 8.43631 24.8868 8.543 24.9318 8.66045C24.9768 8.77791 25 8.90382 25 9.03099C25 9.15815 24.9768 9.28407 24.9318 9.40152C24.8868 9.51898 24.8209 9.62566 24.7377 9.71547L17.5953 17.4497C17.4277 17.6312 17.2003 17.7332 16.9632 17.7332C16.7261 17.7332 16.4987 17.6312 16.3311 17.4497C16.1635 17.2682 16.0693 17.022 16.0693 16.7652C16.0693 16.5085 16.1635 16.2623 16.3311 16.0807L21.9504 9.99777H0.8928C0.656015 9.99777 0.428928 9.89591 0.261495 9.71461C0.0940626 9.5333 0 9.28739 0 9.03099Z" fill="#CDAF18"/>
</svg>
